<svg width="21.000000" height="31.000000" viewBox="0 0 21 31" fill="none" xmlns="http://www.w3.org/2000/svg" xmlns:xlink="http://www.w3.org/1999/xlink">
	<desc>
			Created with Pixso.
	</desc>
	<defs/>
	<path id="Vector" d="M19.97 28.94L19.41 28.94C19.41 28.93 19.41 28.93 19.41 28.92L19.39 28.85C19.38 28.81 19.37 28.76 19.36 28.72C19.35 28.7 19.35 28.68 19.34 28.65C19.33 28.6 19.31 28.54 19.3 28.48L19.29 28.46C19.28 28.4 19.26 28.33 19.24 28.27L19.22 28.21C19.21 28.17 19.19 28.12 19.18 28.08C19.17 28.06 19.17 28.03 19.16 28.01C19.14 27.97 19.13 27.93 19.12 27.89C19.11 27.87 19.1 27.84 19.09 27.82C19.07 27.77 19.06 27.72 19.04 27.67C19.03 27.66 19.03 27.65 19.02 27.64C19 27.58 18.98 27.52 18.95 27.46C18.94 27.44 18.93 27.41 18.93 27.39C18.91 27.36 18.89 27.31 18.88 27.27L18.84 27.2C18.83 27.17 18.81 27.13 18.79 27.09C18.78 27.07 18.77 27.04 18.76 27.02C18.74 26.98 18.72 26.93 18.7 26.89C18.69 26.88 18.68 26.86 18.67 26.84C18.65 26.79 18.62 26.73 18.59 26.68L18.55 26.61L18.49 26.51L18.45 26.43C18.43 26.4 18.41 26.37 18.39 26.34C18.38 26.31 18.36 26.29 18.35 26.26C18.33 26.23 18.31 26.19 18.29 26.16L18.23 26.07C18.2 26.03 18.18 25.99 18.15 25.94C18.13 25.92 18.11 25.89 18.1 25.87C18.08 25.84 18.06 25.81 18.04 25.78C18.02 25.76 18 25.73 17.98 25.7C17.97 25.67 17.95 25.65 17.93 25.63C17.91 25.6 17.89 25.57 17.87 25.54L17.81 25.47C17.77 25.42 17.74 25.37 17.7 25.32L17.65 25.25C17.62 25.22 17.6 25.19 17.58 25.17L17.52 25.1C17.5 25.07 17.47 25.05 17.45 25.02L17.4 24.96L17.32 24.87L17.28 24.82C17.18 24.72 17.09 24.61 16.99 24.52L16.94 24.47L16.85 24.38L16.81 24.34C16.78 24.31 16.74 24.28 16.71 24.25L16.68 24.22C16.57 24.12 16.45 24.02 16.34 23.92L16.3 23.89C16.27 23.86 16.23 23.83 16.2 23.81L16.16 23.78C16.12 23.75 16.08 23.72 16.05 23.69L16.03 23.67C15.9 23.57 15.77 23.48 15.63 23.39L15.61 23.37C15.57 23.34 15.53 23.31 15.49 23.29L15.46 23.27C15.41 23.24 15.37 23.21 15.33 23.18L15.32 23.18C15.17 23.09 15.03 23 14.88 22.91L14.87 22.91C14.82 22.88 14.77 22.86 14.73 22.83L14.71 22.82C14.45 22.69 14.19 22.56 13.92 22.45L13.91 22.44C13.83 22.41 13.76 22.38 13.69 22.35L15.1 22.35C15.33 22.35 15.52 22.1 15.52 21.79C15.52 21.48 15.33 21.23 15.1 21.23L14.68 21.23C14.71 21.17 14.74 21.1 14.77 21.02C15.17 20.78 15.87 20.28 16.56 19.36L16.57 19.35C16.62 19.28 16.67 19.21 16.72 19.14L16.73 19.12C16.78 19.05 16.83 18.98 16.88 18.9L16.9 18.88C16.92 18.84 16.95 18.8 16.97 18.77C16.97 18.77 16.97 18.76 16.97 18.76C17 18.73 17.02 18.68 17.04 18.64L17.06 18.62C17.08 18.58 17.1 18.55 17.12 18.51C17.13 18.51 17.13 18.5 17.13 18.49C17.16 18.45 17.18 18.41 17.2 18.37L17.22 18.34C17.24 18.31 17.26 18.27 17.27 18.24C17.28 18.23 17.29 18.22 17.29 18.21C17.31 18.17 17.33 18.12 17.36 18.08L17.37 18.05C17.39 18.01 17.41 17.98 17.42 17.94L17.44 17.9C17.46 17.86 17.49 17.82 17.51 17.77L17.52 17.74C17.54 17.7 17.55 17.67 17.57 17.63L17.59 17.58C17.61 17.54 17.63 17.49 17.65 17.45C17.65 17.44 17.66 17.43 17.66 17.42C17.68 17.38 17.7 17.34 17.71 17.29L17.73 17.24C17.75 17.2 17.76 17.16 17.78 17.12L17.79 17.09C17.81 17.04 17.83 16.99 17.85 16.94L17.87 16.89C17.88 16.85 17.89 16.81 17.91 16.76C17.91 16.75 17.92 16.73 17.92 16.72C17.94 16.67 17.96 16.62 17.97 16.56C17.98 16.54 17.99 16.53 17.99 16.51L18.03 16.38C18.04 16.37 18.04 16.35 18.05 16.33C18.06 16.28 18.08 16.22 18.09 16.17C18.1 16.15 18.1 16.13 18.11 16.11C18.12 16.07 18.13 16.03 18.14 15.98C18.15 15.96 18.15 15.94 18.16 15.92C18.17 15.87 18.19 15.81 18.2 15.75L18.22 15.7C18.23 15.65 18.24 15.61 18.25 15.56L18.26 15.49C18.28 15.43 18.29 15.37 18.3 15.31C18.3 15.3 18.31 15.29 18.31 15.27C18.32 15.22 18.33 15.17 18.34 15.11C18.35 15.09 18.35 15.07 18.35 15.04C18.36 14.99 18.37 14.93 18.38 14.88C18.39 14.86 18.39 14.85 18.39 14.84C18.4 14.78 18.41 14.71 18.42 14.64C18.43 14.62 18.43 14.6 18.43 14.57C18.44 14.52 18.45 14.47 18.46 14.41L18.46 14.36C18.47 14.29 18.48 14.22 18.49 14.15C18.49 14.13 18.5 14.11 18.5 14.08C18.51 14.03 18.51 13.97 18.52 13.92C18.52 13.9 18.52 13.88 18.52 13.86C18.53 13.78 18.54 13.71 18.55 13.64C18.55 13.62 18.55 13.6 18.55 13.57C18.56 13.52 18.56 13.46 18.57 13.4C18.57 13.37 18.57 13.35 18.57 13.33C18.58 13.25 18.58 13.18 18.59 13.1C18.59 13.08 18.59 13.06 18.59 13.05C18.59 12.98 18.6 12.92 18.6 12.85C18.6 12.83 18.6 12.8 18.6 12.78C18.61 12.7 18.61 12.62 18.61 12.54C18.61 12.53 18.61 12.52 18.61 12.5C18.61 12.43 18.61 12.36 18.62 12.28C18.62 12.26 18.62 12.23 18.62 12.21C18.62 12.13 18.62 12.05 18.62 11.97L18.62 11.95C18.62 11.86 18.62 11.78 18.62 11.69L18.62 11.61C18.62 11.54 18.61 11.46 18.61 11.38L18.61 11.34C18.61 11.25 18.6 11.16 18.6 11.07C18.6 11.04 18.6 11.02 18.6 11C18.59 10.92 18.59 10.84 18.59 10.76C18.59 10.75 18.59 10.73 18.58 10.71C18.58 10.61 18.57 10.52 18.56 10.42L18.56 10.36C18.55 10.28 18.55 10.2 18.54 10.12C18.54 10.09 18.54 10.07 18.54 10.05C18.53 9.95 18.52 9.85 18.51 9.75C18.51 9.73 18.5 9.72 18.5 9.7C18.49 9.61 18.49 9.53 18.48 9.44C18.47 9.42 18.47 9.39 18.47 9.37C18.46 9.26 18.45 9.16 18.43 9.06C18.43 9.04 18.43 9.03 18.43 9.02C18.42 8.93 18.4 8.83 18.39 8.74C18.39 8.71 18.38 8.68 18.38 8.66C18.37 8.55 18.35 8.44 18.33 8.34C16.76 -2.32 5.57 -0.59 5.57 -0.59L5.92 1.7L-0.84 8.48L-0.55 11.09L2.02 12.59C2.13 12.31 2.28 12.05 2.45 11.81C4.11 10 7.32 8.58 8.24 8.28C8.42 8.23 8.52 8.2 8.52 8.2C4.13 13.59 4.63 19.76 4.83 21.24C4.62 21.27 4.46 21.51 4.46 21.79C4.46 22.1 4.65 22.35 4.88 22.35L6.29 22.35C3.94 23.29 2.08 25.06 1.11 27.29C1.1 27.3 1.1 27.3 1.1 27.3C1.03 27.47 0.96 27.64 0.9 27.81C0.9 27.81 0.9 27.81 0.9 27.81C0.88 27.86 0.87 27.9 0.85 27.95C0.85 27.97 0.84 27.98 0.84 28C0.82 28.04 0.81 28.09 0.8 28.13C0.79 28.15 0.78 28.17 0.78 28.19C0.76 28.23 0.75 28.27 0.74 28.32L0.72 28.39C0.71 28.43 0.7 28.47 0.68 28.51C0.68 28.53 0.67 28.56 0.66 28.59C0.65 28.63 0.64 28.66 0.63 28.7C0.63 28.74 0.62 28.78 0.61 28.82C0.6 28.86 0.59 28.9 0.58 28.95L0.02 28.95C-0.09 28.94 -0.2 28.96 -0.3 29C-0.4 29.04 -0.49 29.09 -0.57 29.17C-0.65 29.24 -0.71 29.32 -0.75 29.42C-0.79 29.51 -0.82 29.61 -0.82 29.72C-0.82 29.82 -0.79 29.92 -0.75 30.02C-0.71 30.11 -0.65 30.2 -0.57 30.27C-0.49 30.34 -0.4 30.4 -0.3 30.43C-0.2 30.47 -0.09 30.49 0.02 30.49L19.98 30.49C20.09 30.49 20.2 30.47 20.3 30.43C20.4 30.4 20.49 30.34 20.57 30.27C20.64 30.2 20.71 30.11 20.75 30.02C20.79 29.92 20.81 29.82 20.81 29.72C20.81 29.61 20.79 29.51 20.75 29.42C20.71 29.32 20.64 29.24 20.57 29.17C20.49 29.09 20.4 29.04 20.3 29C20.2 28.96 20.09 28.94 19.98 28.95L19.97 28.94Z" fill="#595653" fill-opacity="1.000000" fill-rule="nonzero"/>
</svg>
